<?xml version="1.0" encoding="UTF-8"?>
<svg id="Capa_2" data-name="Capa 2" xmlns="http://www.w3.org/2000/svg" viewBox="0 0 502.22 140.83">
  <defs>
    <style>
      .cls-1 {
        fill: #a57f2c;
      }

      .cls-2 {
        fill: #006455;
        fill-rule: evenodd;
      }

      .cls-3 {
        fill: #611232;
      }
    </style>
  </defs>
  <g id="Capa_1-2" data-name="Capa 1">
    <g>
      <g>
        <path class="cls-1" d="M206.02,12.02c-2.3-2.3-5.2-3.4-8.7-3.4l-41.6-.4h-.1c0-.2-.2-.4-.3-.6-.5-1.2-1.2-2.9-3.1-4.8-4.1-3.9-7.8-2.9-9.7-2-3,1.5-5,4.7-5,8.3l-.2,14.3c0,.7,0,6,3.2,10.1h-.2c-1.2,0-4,.5-5.1,5-.4,1.8-.5,3.5-.5,3.7v6.4H50.52v-5.4c0-2.3-.9-3.7-1.7-4.5-1.6-1.6-3.7-1.6-4.3-1.6h-2.8l-23.1-.2c-.7-.1-1.9-.7-2.3-3.9v-3.1c0-4.5-3-8.3-7.2-9.1-1.5-.3-2.9-.1-4.3.5C1.92,22.52.02,25.52.02,28.92v30.7c0,2.9,1.2,5.5,3.3,7.4,1.6,1.4,3.4,2.3,5.2,2.7v10.9c0,4.9,3.7,8.8,8.3,8.8h6.9c2.6,0,4.8-1.2,6.4-3.2,1.9,2,4.5,3.2,7.3,3.2h2.5c5.8,0,10.4-5,10.4-11.2v-3.5h98.5v2.8c0,4.9,4.3,8.9,9.6,8.9h2.3c2.9,0,5.6-1.3,7.3-3.2,1.8,2,4.4,3.2,7.3,3.2h2.2c2.7,0,5.2-1.1,7-2.8,1.7,1.7,4.2,2.8,7,2.8h2.3c5.3,0,9.6-4,9.6-8.9v-4.3c1.2-.6,2.4-1.4,3.5-2.6,2.5-2.6,3.7-6.2,3.7-10.7-.2-13.9,0-35.5,0-35.7,0-.3,0-7.6-4.4-12.1h0l-.2-.1ZM44.62,42.42h.1s.4,0,.6.2c0,0,.1.3.1.7v10.7h0v5.1c0,1.9-2,3.2-3.9,3.2h-6.5c-1.8,0-3.2-1.6-3.2-3.6v-16.3h12.8ZM6.52,62.92c-1-.8-1.5-2-1.5-3.4v-30.7c0-1.2.7-2.3,1.7-2.7.5-.2,1-.2,1.5-.1,1.7.3,3,2,3,3.9v3.5c.7,6.6,4.5,8.3,6.7,8.7h.2l8.6.1v8.6h-7.4c-4.2,0-7.3,1.3-9.2,3.8-2.4,3.1-2,7-1.8,8.2v1.3c-.7-.3-1.3-.7-1.9-1.2h.1ZM45.12,74.72v3.5c0,3.3-2.4,6-5.4,6h-2.5c-2.9,0-5.3-2.6-5.4-5.9v-3.6h13.3,0ZM165.02,77.42c0,2-2,3.7-4.5,3.7h-2.3c-2.5,0-4.5-1.6-4.5-3.7v-2.8h11.2v2.8h.1ZM177.42,81.12h-2.3c-2.5,0-4.5-1.6-4.5-3.7v-2.8h11.1v3.5c-.4,1.7-2.2,3-4.4,3h.1ZM198.12,77.42c0,2-2,3.7-4.5,3.7h-2.3c-2.2,0-4-1.3-4.4-3v-3.5h11.1v2.8h.1ZM201.52,68.02c-2,1.2-4.2,1.3-4.2,1.3H32.82c0,.1-1.3.1-1.3.1h0c-2.5.1-4.6,2.3-4.7,5h0v6.1c0,2-1.4,3.6-3.2,3.6h-6.9c-1.8,0-3.2-1.6-3.2-3.6v-18.6s-.6-2.5.7-4.1c.9-1.2,2.7-1.8,5.2-1.8h7.4v2.6c0,4.9,3.7,8.8,8.3,8.8h6.5c4.3,0,8.9-3.4,8.9-8.5v-5.1h84.3c2.7,0,5-2.4,5-5.2v-6.4c0-1.3.3-2.9.7-3.5h10.4v10.3c0,.7,0,6.3,3.5,10.2,2.2,2.3,5.2,3.5,8.8,3.5s2.5-1.2,2.5-2.6-1.1-2.6-2.5-2.6c-2.3,0-4-.6-5.2-1.9-2.3-2.4-2.1-6.4-2.1-6.4v-11.8h11.2c-.4,1-.6,2.1-.6,3.3v3.8c0,4.7,3.7,8.5,8.1,8.5h16.3c4.5,0,8.1-3.8,8.1-8.5v-5.9c0-2.5-1.1-4.4-3-5.5-1.1-.6-2.4-.9-3.7-1h-45.4c-4.9-2.2-4.7-8.3-4.7-8.6l.2-14.4c0-1.6.9-3,2.1-3.6.9-.4,2.1-.7,4,1.1,1.2,1.1,1.5,2,1.9,3,.6,1.4,1.4,3.5,4.6,3.8l42.1.4h0c2.1,0,3.8.5,5,1.8,2.9,2.9,2.9,8.3,2.9,8.4,0,.2-.2,21.8,0,35.8,0,3.9-1.2,6.6-3.7,8.1h0l.2.1ZM194.02,38.72v5.9c0,1.8-1.4,3.3-3.1,3.3h-16.3c-1.7,0-3.1-1.5-3.1-3.3v-3.8c0-1.8,1.4-3.3,3.1-3.3h16.3c3.1,0,3.1.6,3.1,1.2h0Z"/>
        <path class="cls-3" d="M27.02,129.92c.2.9.1,2.1,0,3.2h0v1c-.1,1.4-.3,3.1-1.1,4.4-1.1,1.8-3.2,1.8-4.7,1.7H3.52c-.8,0-1.7-.1-2.6-.7h-.2c-1.5-1.6-.3-3.3.4-4.3.3-.4.5-.8.6-1.1.3-.8.3-1.5.4-2.6v-1.1c0-6.6.1-12.4,0-17.2,0-.8-.2-1.5-.4-2.1-.2-.4-.4-.9-.7-1.3-.5-.8-1.1-1.7-1-2.7v-.5c.8-1.9,3.5-1.8,5.5-1.8h1.8c2.7,0,5.2,0,5.9,1.5.4.8.2,1.8-.7,2.9l-.3.4c-.5.6-.9,1.1-1.1,1.7-.4.8-.4,1.7-.4,2.9v16c0,1.5,0,3.1.7,3.5,1.5.8,3.4.7,5.2.5h0c3.1-.3,4.7-1.4,6-4.6.1-.3.7-1.1.7-1.1.9-1.1,1.8-1,2.1-.9.8.2,1.4.9,1.5,1.9h0l.1.4Z"/>
        <path class="cls-3" d="M40.92,135.62c.7.9,1.8,2.4.8,3.7l-.2.2c-1.1.8-2.3,1-3.5,1s-.7,0-1.1,0h-1.8c-2.6,0-5.1,0-5.8-1.5-.4-.8-.2-1.8.7-3h0c.5-.9,1-1.6,1.2-2.3.2-.8.1-2,.1-3.2v-19.4c0-.9-.6-1.5-1.1-2.2-.6-.7-1.3-1.4-1-2.4.2-1,1.2-1.7,3.3-2.5,2.9-1.2,4.9-1.7,6.3-.7,1.1.8,1.5,2.4,1.2,5.2v23.8c0,.9,0,1.6.3,2.3h0c0,.3.4.8.7,1.1h0l-.1-.1Z"/>
        <path class="cls-3" d="M67.92,123.42v15c0,.3,0,.6-.2.9-.3.6-.9.9-1.6.9h-4.1c-1,0-1.8-.8-1.8-1.8v-.6c-1.9,1.5-4.5,2.4-7,2.4-5,0-8.3-2.8-8.3-7s2.8-7,7.8-8.5c1.8-.5,3.7-.8,5.2-1,.8-.1,1.7-.2,2-.3,0-.1.1-.5.1-1.3,0-1.3-.3-3.7-2.1-4.4-.6-.2-1.3-.3-1.9-.3-1.7.1-3,1.1-3.4,2.8v.2c-.7,2-1.2,2.5-3.8,2.3-.8,0-1.3-.3-1.7-.8-.6-.8-.6-1.9-.3-3.5.3-1.7,1.5-3.2,3.4-4.3,1.7-1,3.9-1.5,5.9-1.5,1.4,0,2.7.2,4,.5h0c2.6.6,4.6,2,6,4l.3.3h0c1,1.8,1.5,3.8,1.5,6h0ZM55.42,134.42c2.8,0,4.7-2.1,4.7-5.3s0-.7,0-.9c-1.7,0-3.1.2-4.2.6-1.9.6-3.1,1.9-3.1,3.4s2,2.2,2.7,2.2h-.1Z"/>
        <path class="cls-3" d="M96.22,114.02c1.1.2,1.9,1.2,1.8,2.3,0,.9-.6,1.4-1,1.9-.2.2-.5.5-.7.9-.4.6-.9,1.4-1.2,2.2-1,2.4-2.9,7.6-4,10.7l-.5,1.3c-.2.5-.4,1-.6,1.5-.8,2-1.6,4.3-3.8,5.4-.9.4-1.7.6-2.4.6s-.8,0-1.2-.2c-1-.4-1.8-1.4-2.3-3.1-.4-.9-1-2.4-1.7-4.2-1.5-3.6-3.3-8.1-4.5-10.9-.6-1.3-1.1-2.3-1.8-3.2-1.3-1.2-1.9-2.4-1.7-3.4,0-.5.4-1.1,1.3-1.6.8-.3,1.7-.3,2.4-.3h5.3c.8-.1,2.1,0,2.8,1,.4.6.5,1.3.3,2-.1.4-.4.8-.6,1.1-.2.3-.3.6-.4.8-.2.5,0,.9.1,1.5,0,.2.1.4.2.6.7,2,1.4,3.8,2.1,5.7l.6,1.6c.1.2.3.7.5,1.3.1.4.4.9.6,1.4,1.1-2.4,1.9-5.3,2.7-8,.2-.6.4-1.3.6-1.8.4-1.2.3-2-.2-2.7-.1-.2-.2-.3-.3-.5-.5-.6-1.1-1.5-.7-2.6.6-1.6,2.4-1.5,3.2-1.5h5.4l-.3.2Z"/>
        <path class="cls-3" d="M121.92,129.22c.4,0,1.6.2,1.6,2.2,0,3.7-4.1,9-11.5,9s-12.9-5.3-12.9-13.3,5.8-14.4,13.5-14.4,10.5,4.9,10.5,9.8-.8,3-2.3,3.8c-3.4,2.1-10.9,2.5-13.1,2.6.3,1.8,1.9,4.7,6,4.7s5-1.2,6.5-3.5h0c.4-.5.9-1.1,1.7-1.1h0v.2ZM115.62,121.72c0-2.2-1.5-3.9-3.6-3.9-3,0-5,3.2-5,6.1s0,.2,0,.3c2.1,0,6.6-.7,8.1-1.8.3-.2.4-.4.4-.8h0l.1.1Z"/>
        <path class="cls-3" d="M173.82,136.62c.3,1,0,1.6-.3,2-.7.8-1.9,1-2.9,1s-.6,0-.9,0h-4.3c-1.2,0-3,0-3.8-1-.3-.3-.5-.9-.3-1.8.2-.6.4-1,.7-1.3.1-.2.3-.4.5-.7.7-1.2.8-2.6.8-3.5v-2.7c0-2.6-.2-6.4-.5-9.6-.1.3-.3.6-.4,1-1,2.3-1.7,4.3-2.8,7.1h0c-.4,1.1-.8,2.3-1.3,3.4-.9,2.3-1.8,4.7-2.5,6.5-.6,1.6-2,2.7-3.4,2.7-1.2,0-2.2-.7-2.7-2-.6-1.3-1.8-4.3-3.2-7.7-1.6-3.9-3.3-8.2-4.6-11.3,0,1.6-.1,3.6-.2,5.6,0,1.5,0,3-.1,4.3,0,1.6,0,3.3.3,5,.2.9.4,1.5.9,1.9.3.3,1.5,1.4,1.3,2.6,0,.4-.3,1-1.2,1.3h-.1c-1.2.3-2.7.3-4.2.3h-1.5c-1.3,0-2.9,0-3.7-1-.4-.6-.4-1.3,0-2.2.2-.5.5-.8.8-1.1.2-.2.4-.5.6-.8.4-.6.4-1.3.5-2.1v-.6c.5-4.9.8-13.1.8-17.7v-.9c0-1.5,0-2.9-.7-4-.2-.4-.5-.6-.7-.9-.4-.4-.8-.8-1-1.5-.2-.5-.2-1.2.2-1.7.4-.6,1.1-1.1,1.8-1.2.6-.1,1.2,0,1.8,0h3.7c3,0,4.5,2.1,5.4,3.9,1.5,3.3,3.8,8.7,5.6,13,.8,1.8,1.4,3.4,1.9,4.6.2-.6.5-1.4.9-2.2,1.7-4.3,4.5-11.5,6.4-15.6.7-1.5,1.8-3.2,3.7-3.5,1-.2,2.1-.2,3.2-.3h1c1.3-.1,3,0,3.8,1,.3.4.6,1.1.2,2.2-.2.5-.5.9-.8,1.2-.2.3-.5.5-.7.8-.9,1.3-.9,2.9-.9,4.6v.5c0,5.4.6,14.1,1,17.9,0,.8.2,1.7.7,2.3.2.3.3.5.5.6.4.5.7.9.9,1.5h0l-.2.1Z"/>
        <path class="cls-3" d="M208.12,134.22c1,.7,2.2,1.5,2.2,2.9,0,.6-.2,1.1-.6,1.6-.8.8-2,.9-2.9.9h-1.5c-1.4,0-3.2-.1-4.6,0h-1.3c-1,0-2.2.2-3.3-.5h-.2c-1.5-1.6-.3-3.1.3-3.8.2-.3.7-.8.6-1,0-.5-.8-2.1-4.5-7-.1-.2-.2-.3-.3-.3-.1.1-.2.3-.3.4-.1.2-.3.4-.4.6-.4.6-.9,1.2-1.4,1.9-.4.5-.7,1-1.1,1.5-1,1.3-1.7,2.4-1.6,3,0,.3.4.6.7.9.3.3.6.7.9,1.1.5,1,.2,1.8,0,2.1-.6.9-1.8,1.1-2.7,1.1h-6.8c-.8,0-1.5-.1-2.2-.5h-.2l-.1-.2c-.5-.6-.7-1.3-.7-1.9.1-1.1,1.2-1.8,2.2-2.5.5-.3,1-.7,1.4-1.1,1.7-1.5,2.9-3.1,4.5-5.3.3-.5.7-.9,1.1-1.4.2-.3.6-.8.9-1.2.8-1.1,1.9-2.6,2.1-3.2q0-.1-.3-.7c-.1-.2-.2-.3-.4-.6-.3-.5-.7-1-1-1.4l-.5-.6c-.3-.4-.7-1-1.2-1.6-1.6-2.2-4-5.6-5.7-7.2-.2-.2-.5-.4-.8-.6-.6-.4-1.1-.8-1.4-1.4-.4-.6-.4-1.4,0-2.1.3-.7.9-1.2,1.7-1.3,1.5-.2,3.2-.1,4.8,0h4.3c1.3-.2,3,0,3.7,1.2.3.6.5,1.5-.5,2.8-.6.6-.9,1-.8,1.3.2,1,2.3,4.3,4.3,6.8,1.6-2,3.9-5.4,4.3-6.7.1-.3,0-.6-.6-1.3-.3-.3-.5-.6-.7-1-.5-1.1-.2-1.8,0-2.1.6-.9,1.8-1.1,2.7-1.1,1.9.1,4.2.1,6.7,0,.9,0,1.8.4,2.3,1.1.4.7.4,1.6-.1,2.4-.6.8-1.4,1.4-2.1,1.9-.6.5-1.2.9-1.7,1.5-1,1.1-3.2,4.1-4.9,6.4-.2.4-.6.8-.9,1.2-.6.7-1.1,1.4-1.4,2.2.2.6,1.2,2.1,1.8,3l.2.2c1.9,2.7,4.8,6.8,6.9,9h0c.3.4.8.7,1.2,1h0l-.1-.4Z"/>
      </g>
      <rect class="cls-1" x="298.92" y="7.42" width="2.5" height="126" rx="1.2" ry="1.2"/>
      <g>
        <path class="cls-2" d="M398.22,101.82c-.8,10.1-.4,13.9-.6,17.8-.1,3.8.5,20.2.5,20.2h-2l-2.8-.2h-2.5l-2.5.2c.3-3.4.6-12.8.5-20.2,0-8-.5-15.5-.5-17.8.3,0,2.7.2,4.9.2s4.6-.2,4.9-.2h.1Z"/>
        <path class="cls-2" d="M440.52,101.82h1.5c0,.1,1.4.2,1.4.2h1.4l1.5-.2c0,6.4,4.1,33,5.3,38h-2.3c0-.1-3-.1-3-.1h-2.7l-2.5.1c0-4.6-1.9-21.9-2.8-23.9l-12,23.9h-.8c0-.1-.6-.1-.6-.1h-.6l-.9.1-12.4-23.7c-.4,1.5-1.3,10.1-1.3,10.1-.9,12.2-.3,2.5-.9,13.6h-1.5l-1.7-.1h-1.7l-1.5.1c1.2-3.4,3.3-17.4,5.9-38h1.5c0,.1,1.3.2,1.3.2h1.4l1.4-.2,13.4,25.4c1.3-.3,13-24.9,13.3-25.4h-.1Z"/>
        <path class="cls-2" d="M463.32,101.12c5.6,0,8.4,1.7,10.4,2.7-1.4,4.9-1.7,6.6-1.8,6.5h-1.7c-.3,0-2.1-5.5-8.7-4.4-1.9.3-3.4,2-3.6,4.1-.2,2.6,1.6,3.7,4.3,5,2.9,1.4,7.2,3.2,10.3,5.2.3.2,4.8,3.3,4.7,8.8,0,6.2-4.9,9.6-6.9,10.4-4.8,1.9-9.8,1.4-11.1,1.2-2.4-.6-6-1.8-8.8-3.3,0,0,.6-4.1,1-6.8l1.8.2s1.6,5.4,9,5.1c2.8-.1,4.5-1.9,4.7-4.3.1-1.1,0-3.6-3-4.9-2.2-.9-7-2.6-10.8-5.7-1.8-1.5-4.9-6.4-2.8-12.2,1.7-4.7,7.4-7.6,12.9-7.7l.1.1Z"/>
        <path class="cls-2" d="M488.32,101.12c5.6,0,8.4,1.7,10.4,2.7-1.4,4.9-1.7,6.6-1.8,6.5h-1.7c-.3,0-2.1-5.5-8.7-4.4-1.9.3-3.4,2-3.6,4.1-.2,2.6,1.6,3.7,4.3,5,2.9,1.4,7.2,3.2,10.3,5.2.3.2,4.8,3.3,4.7,8.8,0,6.2-4.9,9.6-6.9,10.4-4.7,1.9-9.8,1.4-11.1,1.2-2.4-.6-6-1.8-8.8-3.3,0,0,.6-4.1,1-6.8l1.8.2s1.6,5.4,9,5.1c2.8-.1,4.5-1.9,4.7-4.3.1-1.1,0-3.6-3-4.9-2.2-.9-7-2.6-10.8-5.7-1.8-1.5-4.9-6.4-2.8-12.2,1.7-4.7,7.4-7.6,12.9-7.7l.1.1Z"/>
        <path class="cls-2" d="M458.32,40.12c-.4-1-1.4-3.2-1.4-5.3s.4-3.7.6-4.3c.6-2.4,6.4-9.7,6.4-9.7-3.3,3-7.6,6-11.7,9.3-1.6,1.4-2.4,2.4-2.5,4.3-.1,1.4.9,3.5,1.6,4.5.5.7,4.9,6.7,6.4,9.3,1.9,3.3,2.9,5.3,4.4,8.9,2.6,6.3,3.7,10.1,4.6,16.8.3-1.5.4-2.4.5-4,.3-5-.4-7.8-1.5-12.6-1.6-7-4.2-10.8-7.4-17v-.2ZM448.82,62.42c-1.7-2.4-3.1-3.3-4.1-4.2-1.3-1-3.2-2-4.6-2.5-2.4-.9-4.6-1.1-6.5-.5-1.3.4-2.5,1.1-3.4,2.4-.6.8-.8,1.5-.9,2.2-.4,1.8,1.6,5.9,1.3,7.9-.2,1.6-1.3,3.4-1.4,3.7-1.1,2.1-1.3,2-2.3,4.2-.6,1.1-.4.6-.9,2,.4-.9,1.7-1.7,2.9-1.9.8-.1,2.1.1,2.5.4.4.2.6.2,1.2.9.3.2.4.5.7.9.6,0,1.1.1,1.3.2.2.1.4.3.5.6.1.2.2.7.3,1.1.2-.6,0-1.4-.2-1.7-.1-.4-.5-.9-.7-1-.7-.4-1.1-.9-1.1-1.5s.3-1.1.8-1.3c0,0,0-.2-.1-.3,0-.1-.1-.4-.1-.3-.3.4-.9.8-1.5.9-.5.1-1.2-.4-2-.4-.5,0-.9-.1-1.4,0,.4-1.6,1.4-3.4,3.2-4.7,1.1-.7,1.9-1,3.2-1.4,1.2-.3,1.9-.2,3-.4.7-.2.6,0,1.7-.5.7-.3,1.8-1.2,2.4-2.5-1.1,1.3-2.7,2-4.1,2s-3.5-.9-4.8-1.9c-.9-.7-2.8-3.1-2.6-4.8,0-1.4,1-2.4,1.8-2.8,1.5-.8,3-.8,4.4-.4.3,0,1.9.5,3.4,1.2.8.4,2.8,1.7,3.7,2.6,1.7,1.6,2.8,3.5,3.3,4.3,1.2,2.4,1.4,4.6,1.5,5.6.3,2.8-.5,5.9-1.3,7.4-.5,1.1-1.2,2.2-2.1,3-.7.5-1.8,1-2.7,1.2-2.4.6-4-.4-5.2-.6-1.7-.2-3.3.2-3.9.5-1,.6-2.3,1.7-4.1,1.5-1.3-.1-2.4-.7-3.2-1.5,0,1.7.9,2.8,2.6,3.7.6.2,1.7.4,2.8.1.6-.2,1.1-.9,2.2-1,1-.2,1.3-.2,1.5.2.3.6-1.3.7-1.2,1.4,0,1.1,3.9,0,5.2,0s.4.2.4.4c0,.6-.9,1.1-1.5,1.4-.3.2-1.8.8-3.1.4,0,0,2.8,1.1,5.4,1,1.6-.1,3.9-.7,6-2.1,1.6-1.1,3.6-4.2,4.6-6.9,2.2-5.8,1.1-9.9.8-11-.5-3.1-2-5.5-3.3-7.4l-.3.2ZM489.82,35.32c-.8,7.3-1.6,12-3.3,19.1-1.1,4.5-2.4,10-3.8,13.4-1.3,3.4-3.3,9.5-5.5,13.6-3.4,6.2-6.9,7.7-8.8,8.7-1.9,1-6.3,2.7-11.4,2.9,2.8-4.3,4-6.1,5.4-10.3,1.6-5.1.7-9.8.4-11.1-.9-4-2.9-9.5-6.5-13.6-4.4-5.1-9.5-9.2-18.3-12.6-4.3-1.7-11.9-2.9-16-3.2-4.9-.4-6.8-.6-11-.7-3.4,0-7-.4-8.5.3-.7.3-1,.6-1.5,1.4l-1.6-3.1c-.6-1.2,0-2.5,1-3,1.1-.6,1.4-.9,2.8-1.4.4-.2.8-.2,1.1-.1.3,0,.6.1.8.3.3.2,1.9,1.5,2.6,2.1l5-3.6h-5.9c-.7-.1-1.3.2-1.3-.2,0-.7,1.2-.9,3.3-2,.4-.2,2.1-1.1,5.1-1.2,3.4-.3,6.3,0,11.3-.2,4.8-.2,8.8-.9,9.3-.9-.3.7-1.7,2-2.6,3-2.3,2.3-3.9,2.8-6.8,4.6,8.4-2.4,12.3-4.9,14.1-6,1.6-.9,4.4-2.8,7.2-4.6,9-6,15-11.5,22-16.7,5.4-4.2,12-6.2,17.1-2.5s4.9,11.8,5,12.5c.3,5.9,0,9.4-.5,15.3l-.2-.2ZM439.42,94.02c-4.5,0-9.5-.2-13.5-1.9-5.4-2.4-9.1-7.1-10.8-10.3-2.9-5.4-3.9-8.5-5.8-14.3-1.8-5.6-2.6-8.5-3.8-13.4-.6-2.8-1.2-5.3-1.6-8.2,5.4-.5,8.5-.2,13.5.1,2.6.2,5,.4,7,.7,2.4.4,5.1,1.4,5.3,4.6.1,1.2-.3,3-1,4,.8-.6,2.8-1.4,4.7-2,1.1-.4,3.5-.7,6.3-.2,3.1.6,5.1,1.5,6.9,2.6,4.1,2.4,4.7,3.3,6.1,4.6,2.1,2.1,6,8.1,6,15.3s-.4,9.5-5.1,14.2c-4.2,4.2-12.3,4.3-14,4.3l-.2-.1ZM401.82,16.72c0-2.5,1.1-5.6,2.3-7.3.4-.5.8-1,1.2-1.4.7-.7,1.6-1.2,2.9-1.8,1.1-.5,3.1-.7,4.9-.6,1.2.1,2.8.7,4.3,1.6,1.3.7,6.8,4.9,12,8.9,5.8,4.4,11.1,9.7,11.1,9.7-2.6.3-9.5.9-14.5,1.3-4.6.3-9.6,0-14.6.4-1,0-2.9.6-4.4,1.2-1.6.7-3,1.6-4.8,3.3-.2-2-.1-2.7-.2-4.8-.2-4-.1-6.4-.1-10.7l-.1.2ZM498.32,26.22c-.4-8.2-1.5-14.4-2.8-16.8-1.7-3.5-4.1-5.4-6-6.1-3.3-1.2-5.6-1.7-8.1-1.9-6.7-.4-12.9-.5-18.9-.9-4.3-.2-7.1-.3-11.7-.3h-14.1c-3.3,0-7.8.1-10.7.1s-16.1,0-22,1.7c-.7.2-2.8.7-4.4,1.7-1.6.9-2.7,2.3-2.9,2.5-2.1,2.5-3.1,5.7-3.5,8.9-.8,6.3-.7,7.7-.8,9.2,0,.4-.3,4.6-.5,7.7-.3,4.3-.4,10.9-.3,15.9.1,8.3,0,11.7.1,16.2.1,2.7.4,4.6.6,8.8.1,2.5.5,6.3.9,9.2.3,1.5.8,3.5,1.2,4.8.2.7.6,1.5.8,2.1.8,1.4,1.9,2.8,3.6,4.2,1.6,1.3,3.4,1.8,5.3,2.4.8.2,5,1,9.6,1.4,3.6.2,7.6.2,8.8.2,7.9.1,15.1.1,21.3.2,2.8,0,13.5,0,23.4-.6,9.9-.5,16.2-.6,19.7-1.6,3.4-1.1,3.8-1.3,5.6-2.7,1.3-1.1,2.6-2.8,3.4-5,1.1-2.8,1.6-5.9,1.7-7,.3-3.2.6-5,.8-8.2.2-2.1.3-4.1.4-6.1.2-5.6.2-12,.2-17.3s-.1-15.1-.6-22.8l-.1.1Z"/>
      </g>
    </g>
  </g>
</svg>